# xmcd
#
# Track frame offsets:
#	150
#	31013
#	44870
#	62216
#	82768
#	107835
#	128167
#	145410
#	164750
#	185697
#	204733
#	222895
#
# Disc length: 3209 seconds
#
# Revision: 0
# Processed by: cddbd v1.5.2PL0 Copyright (c) Steve Scherf et al.
# Submitted via: dBpowerAMP V4.0
#
DISCID=b70c870c
DTITLE=Tank - Sex Love and Pain
DYEAR=2007
DGENRE=R&B
TTITLE0=Coldest
TTITLE1=I'm Coming Home
TTITLE2=My Body
TTITLE3=Please Don't Go
TTITLE4=I Hate You
TTITLE5=Heartbreaker
TTITLE6=Who Dat
TTITLE7=When
TTITLE8=Wedding Song
TTITLE9=My Heart
TTITLE10=I Love You
TTITLE11=I Love Dem Girls-Timbaland Remix
EXTD=\n
EXTT0=
EXTT1=
EXTT2=
EXTT3=
EXTT4=
EXTT5=
EXTT6=
EXTT7=
EXTT8=
EXTT9=
EXTT10=
EXTT11=
PLAYORDER=
